HIERARCHY
ROOT Hips
{
	OFFSET 0.00000 0.00000 0.00000
	CHANNELS 6 Xposition Yposition Zposition Zrotation Yrotation Xrotation 
	JOINT LHipJoint
	{
		OFFSET 0 0 0
		CHANNELS 3 Zrotation Yrotation Xrotation
		JOINT LeftHip
		{
			OFFSET 1.54859 -1.61379 0.86856
			CHANNELS 3 Zrotation Yrotation Xrotation
			JOINT LeftKnee
			{
				OFFSET 2.25087 -6.18423 0.00000
				CHANNELS 3 Zrotation Yrotation Xrotation
				JOINT LeftAnkle
				{
					OFFSET 2.40328 -6.60297 0.00000
					CHANNELS 3 Zrotation Yrotation Xrotation
					JOINT LeftToe
					{
						OFFSET 0.17435 -0.47901 2.02453
						CHANNELS 3 Zrotation Yrotation Xrotation
						End Site
						{
							OFFSET 0.00000 -0.00000 1.04844
						}
					}
				}
			}
		}
	}
	JOINT RHipJoint
	{
		OFFSET 0 0 0
		CHANNELS 3 Zrotation Yrotation Xrotation
		JOINT RightHip
		{
			OFFSET -1.54669 -1.61379 0.86856
			CHANNELS 3 Zrotation Yrotation Xrotation
			JOINT RightKnee
			{
				OFFSET -2.28132 -6.26789 0.00000
				CHANNELS 3 Zrotation Yrotation Xrotation
				JOINT RightAnkle
				{
					OFFSET -2.51636 -6.91365 0.00000
					CHANNELS 3 Zrotation Yrotation Xrotation
					JOINT RightToe
					{
						OFFSET -0.15124 -0.41552 2.21090
						CHANNELS 3 Zrotation Yrotation Xrotation
						End Site
						{
							OFFSET -0.00000 -0.00000 1.13399
						}
					}
				}
			}
		}
	}
	JOINT lowerback
	{
		OFFSET 0 0 0
		CHANNELS 3 Zrotation Yrotation Xrotation
		JOINT Chest
		{
			OFFSET -0.04287 2.26161 -0.25690
			CHANNELS 3 Zrotation Yrotation Xrotation
			JOINT Chest2
			{
				OFFSET 0.02248 2.28395 -0.10140
				CHANNELS 3 Zrotation Yrotation Xrotation
				JOINT lowerneck
				{
					OFFSET 0 0 0
					CHANNELS 3 Zrotation Yrotation Xrotation
					JOINT Neck
					{
						OFFSET -0.11644 1.38496 0.11345
						CHANNELS 3 Zrotation Yrotation Xrotation
						JOINT Head
						{
							OFFSET 0.29383 1.36600 0.06642
							CHANNELS 3 Zrotation Yrotation Xrotation
							End Site
							{
								OFFSET 0.11075 1.41395 -0.00294
							}
						}
					}
				}
				JOINT LeftCollar
				{
					OFFSET 0 0 0
					CHANNELS 3 Zrotation Yrotation Xrotation
					JOINT LeftShoulder
					{
						OFFSET 3.51628 0.59542 -0.30346
CHANNELS 3 Zrotation Xrotation Yrotation
						JOINT LeftElbow
						{
OFFSET 0 -4.764050 0.000000
CHANNELS 3 Zrotation Xrotation Yrotation
							JOINT LeftWrist
							{
OFFSET 0 -3.137590 -0.000000
CHANNELS 3 Zrotation Xrotation Yrotation
								JOINT lhand
								{
									OFFSET 0 0 0
CHANNELS 3 Zrotation Xrotation Yrotation
									JOINT LFingers
									{
OFFSET 0 -0.732260 -0.000000
CHANNELS 3 Zrotation Xrotation Yrotation
										End Site
										{
OFFSET 0 -0.590370 -0.000000
										}
									}
								}
								JOINT LThumb
								{
OFFSET 0 0.000000 0.000000
CHANNELS 3 Zrotation Xrotation Yrotation
									End Site
									{
OFFSET 0 -0.599380 0.599380
									}
								}
							}
						}
					}
				}
				JOINT RightCollar
				{
					OFFSET 0 0 0
					CHANNELS 3 Zrotation Yrotation Xrotation
					JOINT RightShoulder
					{
						OFFSET -3.30990 0.84213 -0.36430
CHANNELS 3 Zrotation Xrotation Yrotation
						JOINT RightElbow
						{
OFFSET 0 -5.101610 -0.000000
CHANNELS 3 Zrotation Xrotation Yrotation
							JOINT RightWrist
							{
OFFSET 0 -3.232670 -0.000000
CHANNELS 3 Zrotation Xrotation Yrotation
								JOINT rhand
								{
									OFFSET 0 0 0
CHANNELS 3 Zrotation Xrotation Yrotation
									JOINT RFingers
									{
OFFSET 0 -0.702000 -0.000000
CHANNELS 3 Zrotation Xrotation Yrotation
										End Site
										{
OFFSET 0 -0.565970 -0.000000
										}
									}
								}
								JOINT RThumb
								{
OFFSET 0 0.000000 0.000000
CHANNELS 3 Zrotation Xrotation Yrotation
									End Site
									{
OFFSET 0 -0.574610 0.574610
									}
								}
							}
						}
					}
				}
			}
		}
	}
}
MOTION
Frames: 4
Frame Time: 0.008333333333333333
-15.041134 13.340199 -0.784296 -368.171846 56.643443 -345.025252 0.000000 0.000000 0.000000 -23.771756 -8.089598 -62.230332 27.460994 18.606457 112.315529 0.197801 -4.910539 -8.138054 2.183902 -9.181037 -26.406878 0.000000 0.000000 0.000000 13.324635 -2.293759 -25.517900 -12.608934 -18.630012 67.899921 -2.237452 7.154756 -26.972770 -7.206307 15.503104 -49.650211 4.743425 2.338929 28.563686 5.115843 5.104423 12.162468 1.398222 2.769303 -2.152724 -15.744610 -7.828958 -1.773966 28.562451 -5.509983 -26.609182 13.056925 -3.335355 -5.737690 0.000000 0.000000 0.000000 15.171805 16.113860 -35.552248 13.210224 -21.594374 2.530187 32.314240 36.057762 -36.881209 0.000000 0.000000 0.000000 -7.125000 0.000000 0.000000 -2.701171 71.562370 1.708589 0.000000 0.000000 0.000000 -54.653805 -53.042796 -38.528186 -24.732472 -35.893877 -8.147203 -10.116958 -36.891713 -29.320902 0.000000 0.000000 0.000000 7.125000 0.000000 0.000000 12.028984 0.748217 12.122350
-14.936601 13.333596 -0.692589 -368.462539 56.887830 -345.352756 0.000000 0.000000 0.000000 -23.641368 -9.001993 -62.950695 27.273782 18.680372 111.727687 0.194003 -5.339917 -8.144861 1.896306 -8.630912 -24.658134 0.000000 0.000000 0.000000 13.604606 -2.741776 -24.467900 -12.329401 -18.524837 67.027463 -2.167657 7.844969 -26.479410 -7.221820 15.515813 -49.708233 4.793676 2.363587 28.692058 5.122329 5.162270 12.177105 1.354867 2.800008 -2.191171 -15.577031 -7.818674 -1.512897 28.633152 -5.469549 -26.780647 13.089676 -3.353965 -5.852769 0.000000 0.000000 0.000000 15.375115 17.175780 -35.907244 13.173471 -21.540822 2.516660 32.337320 34.992687 -36.899527 0.000000 0.000000 0.000000 -7.125000 0.000000 0.000000 -2.681714 71.588810 1.697867 0.000000 0.000000 0.000000 -54.547315 -52.107787 -38.964459 -25.596516 -36.798530 -8.648510 -6.906073 -36.222740 -28.993106 0.000000 0.000000 0.000000 7.125000 0.000000 0.000000 13.862452 1.516552 13.902851
-14.826977 13.328836 -0.596920 -368.686421 57.143828 -345.599165 0.000000 0.000000 0.000000 -23.563162 -9.824470 -63.624036 27.042060 18.763318 111.008549 0.188961 -5.699305 -8.152175 1.919245 -8.688356 -24.830125 0.000000 0.000000 0.000000 13.799335 -3.168829 -23.383273 -12.022545 -18.393536 66.052760 -2.060147 8.702349 -25.790616 -7.232657 15.524674 -49.748745 4.810428 2.402090 28.739243 5.108725 5.220968 12.207984 1.312755 2.832165 -2.174902 -15.349483 -7.823158 -1.275121 28.648008 -5.459963 -26.904722 13.079782 -3.388380 -5.949441 0.000000 0.000000 0.000000 15.538107 18.155499 -36.174348 13.122319 -21.466052 2.497973 32.273338 34.056466 -36.991476 0.000000 0.000000 0.000000 -7.125000 0.000000 0.000000 -2.868842 71.661257 1.821943 0.000000 0.000000 0.000000 -54.463218 -51.005221 -38.671060 -26.346590 -37.530811 -9.105190 -6.270282 -36.006149 -28.483513 0.000000 0.000000 0.000000 7.125000 0.000000 0.000000 14.214874 2.101455 14.130472
-14.715988 13.324571 -0.500188 -368.892389 57.402939 -345.823831 0.000000 0.000000 0.000000 -23.498946 -10.622838 -64.284771 26.798404 18.848685 110.254208 0.183585 -6.039927 -8.159625 2.025442 -8.908698 -25.517095 0.000000 0.000000 0.000000 13.971209 -3.590260 -22.289363 -11.708363 -18.255231 65.050644 -1.942526 9.604548 -25.049422 -7.242239 15.532504 -49.784563 4.818199 2.444307 28.764661 5.089735 5.279896 12.243218 1.270977 2.864711 -2.143963 -15.105856 -7.831601 -1.043589 28.647891 -5.458649 -27.016091 13.058455 -3.427032 -6.041177 0.000000 0.000000 0.000000 15.690290 19.113178 -36.417887 13.067306 -21.385593 2.477902 32.186014 33.154792 -37.103166 0.000000 0.000000 0.000000 -7.125000 0.000000 0.000000 -3.111358 71.746040 1.982160 0.000000 0.000000 0.000000 -54.385126 -49.857729 -38.182024 -27.066106 -38.216875 -9.549907 -6.324915 -35.910848 -27.925178 0.000000 0.000000 0.000000 7.125000 0.000000 0.000000 14.170204 2.637177 13.941741
